name D:\school\WTK\thesis\model\3dpredictsim\Results\MidTarsalJoint\Fal_s1_bCst_PF_Natali2010_ls150_MT_k400_d020_MTP_T5_ig23.mot
datacolumns 128
datarows 4
range 1.69834745 1.73231440
endheader
time	pelvis_tilt	pelvis_list	pelvis_rotation	pelvis_tx	pelvis_ty	pelvis_tz	hip_flexion_l	hip_adduction_l	hip_rotation_l	hip_flexion_r	hip_adduction_r	hip_rotation_r	knee_angle_l	knee_angle_r	ankle_angle_l	ankle_angle_r	subtalar_angle_l	subtalar_angle_r	mtj_angle_l	mtj_angle_r	mtp_angle_l	mtp_angle_r	lumbar_extension	lumbar_bending	lumbar_rotation	arm_flex_l	arm_add_l	arm_rot_l	arm_flex_r	arm_add_r	arm_rot_r	elbow_flex_l	elbow_flex_r	pro_sup_l	pro_sup_r	glut_med1_l/activation	glut_med2_l/activation	glut_med3_l/activation	glut_min1_l/activation	glut_min2_l/activation	glut_min3_l/activation	semimem_l/activation	semiten_l/activation	bifemlh_l/activation	bifemsh_l/activation	sar_l/activation	add_long_l/activation	add_brev_l/activation	add_mag1_l/activation	add_mag2_l/activation	add_mag3_l/activation	tfl_l/activation	pect_l/activation	grac_l/activation	glut_max1_l/activation	glut_max2_l/activation	glut_max3_l/activation	iliacus_l/activation	psoas_l/activation	quad_fem_l/activation	gem_l/activation	peri_l/activation	rect_fem_l/activation	vas_med_l/activation	vas_int_l/activation	vas_lat_l/activation	med_gas_l/activation	lat_gas_l/activation	soleus_l/activation	tib_post_l/activation	flex_dig_l/activation	flex_hal_l/activation	tib_ant_l/activation	per_brev_l/activation	per_long_l/activation	per_tert_l/activation	ext_dig_l/activation	ext_hal_l/activation	ercspn_l/activation	intobl_l/activation	extobl_l/activation	glut_med1_r/activation	glut_med2_r/activation	glut_med3_r/activation	glut_min1_r/activation	glut_min2_r/activation	glut_min3_r/activation	semimem_r/activation	semiten_r/activation	bifemlh_r/activation	bifemsh_r/activation	sar_r/activation	add_long_r/activation	add_brev_r/activation	add_mag1_r/activation	add_mag2_r/activation	add_mag3_r/activation	tfl_r/activation	pect_r/activation	grac_r/activation	glut_max1_r/activation	glut_max2_r/activation	glut_max3_r/activation	iliacus_r/activation	psoas_r/activation	quad_fem_r/activation	gem_r/activation	peri_r/activation	rect_fem_r/activation	vas_med_r/activation	vas_int_r/activation	vas_lat_r/activation	med_gas_r/activation	lat_gas_r/activation	soleus_r/activation	tib_post_r/activation	flex_dig_r/activation	flex_hal_r/activation	tib_ant_r/activation	per_brev_r/activation	per_long_r/activation	per_tert_r/activation	ext_dig_r/activation	ext_hal_r/activation	ercspn_r/activation	intobl_r/activation	extobl_r/activation	
          1.69834745	         -2.92604933	          2.32795150	         -5.66022354	          2.12293431	          0.91823745	          0.00100178	         28.64383164	          4.00918601	         -1.37676984	        -16.67017623	         -1.73034696	          6.41145266	        -12.31471945	        -10.68994246	          4.72823467	         -2.72691821	         -4.87804244	         10.96741769	          0.00278790	          2.81600183	         -0.86089884	         16.00721515	         -1.82705982	         -0.65643325	          2.12191772	         -5.70969768	        -13.47435422	          7.49243063	          4.76572747	        -13.47587851	         17.35410054	         15.27290476	         35.33490838	         86.51662706	         86.51662706	          0.05000000	          0.05000002	          0.10747824	          0.05000003	          0.05000003	          0.05000004	          0.05264244	          0.05000011	          0.17092457	          0.05000005	          0.05000032	          0.10131419	          0.25681252	          0.31609827	          0.21064473	          0.12632774	          0.05000038	          0.07063527	          0.11804263	          0.08122271	          0.11027725	          0.12543588	          0.05000003	          0.05000023	          0.36831420	          0.20658448	          0.11209423	          0.05943563	          0.16754597	          0.16878931	          0.14326341	          0.05000009	          0.05000040	          0.05000001	          0.05946401	          0.05000291	          0.05943539	          0.47993202	          0.29381736	          0.19387892	          0.25519514	          0.45693632	          0.20210597	          0.05000000	          0.09210706	          0.08398335	          0.23176256	          0.08398351	          0.05943675	          0.25204095	          0.16767372	          0.08777367	          0.05000148	          0.05000026	          0.05000037	          0.05000018	          0.08402156	          0.18779487	          0.05946170	          0.06613045	          0.05943604	          0.05943543	          0.24773626	          0.09981515	          0.05001229	          0.05000197	          0.05000153	          0.05000953	          0.29783885	          0.53511472	          0.05000330	          0.05943639	          0.05943537	          0.16768867	          0.09008850	          0.16321879	          0.14268072	          0.22892629	          0.31334828	          0.26569425	          0.21891818	          0.20848529	          0.27835765	          0.05000000	          0.05000006	          0.13979937	          0.05000004	          0.05000000	          0.05000006	          0.05862894	          0.05943537	          0.05943526	
          1.70966976	         -2.91808156	          2.41288243	         -5.89390731	          2.14039473	          0.91731480	          0.00081150	         27.80186996	          4.26956262	         -1.10710784	        -16.42890693	         -2.01781356	          6.18803955	        -12.69450037	        -12.77016763	          4.24049717	         -3.56628492	         -5.28851314	         11.89010364	         -0.16101527	          1.99340691	         -0.89474198	         17.54989949	         -1.60572217	         -0.87158116	          2.17888411	         -6.63860334	        -13.48406074	          7.28250281	          4.35169660	        -13.48962512	         17.52819684	         15.00778902	         36.52588078	         86.51662706	         86.51662706	          0.24288723	          0.24814359	          0.30061612	          0.35342584	          0.21654427	          0.18545933	          0.06639343	          0.05694818	          0.14698759	          0.08398273	          0.05704880	          0.08523073	          0.21604393	          0.26591818	          0.17720526	          0.11665285	          0.05000020	          0.05942372	          0.09930381	          0.15980428	          0.13537732	          0.10552316	          0.05160876	          0.05000030	          0.30984488	          0.17378955	          0.24287410	          0.05000032	          0.14094832	          0.14199429	          0.12052058	          0.05000025	          0.05000061	          0.05044628	          0.05002421	          0.05000014	          0.05000027	          0.57708353	          0.34678400	          0.18313649	          0.36791415	          0.53151353	          0.24264406	          0.06549541	          0.10626971	          0.07065112	          0.34731003	          0.07065126	          0.05000129	          0.31010137	          0.14105581	          0.07383975	          0.05000090	          0.05000010	          0.05000008	          0.05000014	          0.07068360	          0.15798276	          0.05002237	          0.05563241	          0.05000096	          0.05000029	          0.21748505	          0.08397062	          0.05000082	          0.05000215	          0.05000092	          0.05000038	          0.25055745	          0.50243822	          0.05000022	          0.05000121	          0.05000018	          0.14106834	          0.07578713	          0.13730809	          0.12003040	          0.19258457	          0.26360469	          0.22351567	          0.18416525	          0.17538860	          0.23416881	          0.05000005	          0.08583117	          0.16882476	          0.05000007	          0.07621201	          0.05000016	          0.05698523	          0.05000010	          0.05000003	
          1.72099208	         -2.90823237	          2.48895112	         -6.09272528	          2.15789483	          0.91645364	          0.00060018	         26.91262281	          4.51138923	         -0.83870056	        -16.07717598	         -2.28951237	          5.97640064	        -13.04169096	        -14.99888296	          3.79887073	         -4.54613662	         -5.71077188	         12.75659205	         -0.13556013	          1.09930537	         -0.86152595	         18.94344547	         -1.38982426	         -1.08453718	          2.22625940	         -7.53646337	        -13.49425657	          7.13670134	          3.90194836	        -13.50896419	         17.64996011	         14.75793310	         37.67916534	         86.51662706	         86.51662706	          0.34071700	          0.35247528	          0.39478638	          0.29732011	          0.18216845	          0.23313561	          0.06959210	          0.09881680	          0.12365403	          0.07065070	          0.05000018	          0.07170049	          0.18174731	          0.22370460	          0.20361593	          0.16331832	          0.05000011	          0.05000277	          0.10391953	          0.24255193	          0.18968482	          0.16178951	          0.05000004	          0.05000004	          0.26065749	          0.14620075	          0.20927084	          0.05000002	          0.17334273	          0.18493504	          0.14191107	          0.05000000	          0.05000002	          0.05000000	          0.05000000	          0.05000005	          0.05000004	          0.64175723	          0.29173259	          0.15406387	          0.57918228	          0.56177594	          0.34178009	          0.08564541	          0.08939955	          0.05943536	          0.29217524	          0.05943549	          0.05000001	          0.26087346	          0.11866344	          0.06211781	          0.05000063	          0.05000007	          0.05000006	          0.05000005	          0.05946279	          0.17407312	          0.09037244	          0.05000033	          0.05000133	          0.05000581	          0.18295977	          0.07064346	          0.05000022	          0.05000062	          0.05000041	          0.05000029	          0.21078184	          0.45497934	          0.05000004	          0.05000015	          0.05000004	          0.11867395	          0.11657403	          0.11551136	          0.10097602	          0.16201204	          0.22175783	          0.18803288	          0.15492929	          0.14754597	          0.19699489	          0.11914043	          0.14988220	          0.14701734	          0.05663159	          0.16374928	          0.05000097	          0.08696891	          0.05000000	          0.05000001	
          1.73231440	         -2.89701484	          2.55889257	         -6.25776520	          2.17522888	          0.91571888	          0.00036254	         26.07672586	          4.76007942	         -0.57006038	        -15.58469966	         -2.54103907	          5.77279447	        -13.45296272	        -17.40789309	          3.29746386	         -5.58603596	         -6.12530317	         13.55019017	         -0.15379097	          0.17391015	         -0.85960929	         19.86630691	         -1.19426854	         -1.29797950	          2.26502890	         -8.36165150	        -13.50372612	          7.05534212	          3.46120456	        -13.52902438	         17.74981043	         14.49896492	         38.74917954	         86.51662706	         86.51662706	          0.44751403	          0.46197958	          0.48529521	          0.25012177	          0.28304594	          0.33466706	          0.06710284	          0.09857888	          0.10402512	          0.05943505	          0.05000012	          0.06031816	          0.15289523	          0.18823701	          0.23495134	          0.18713930	          0.05000010	          0.05000082	          0.08742266	          0.30743390	          0.23502720	          0.19950137	          0.05000002	          0.05000002	          0.21927852	          0.12299163	          0.19870865	          0.05000002	          0.27963804	          0.28551884	          0.23325406	          0.05000001	          0.05000004	          0.05000000	          0.10086297	          0.05003276	          0.05000063	          0.72401592	          0.24542047	          0.12960646	          0.48723798	          0.54778667	          0.36966487	          0.09750255	          0.07520751	          0.05000009	          0.24579288	          0.05000023	          0.05000003	          0.21946025	          0.09982583	          0.05225675	          0.05002038	          0.05000057	          0.05000108	          0.05000007	          0.05002329	          0.17533981	          0.13504338	          0.14847941	          0.05001462	          0.11866453	          0.15391538	          0.05942947	          0.05000039	          0.05000088	          0.05000057	          0.05000040	          0.17732053	          0.40111000	          0.05000006	          0.05000026	          0.05000009	          0.09983464	          0.09806813	          0.09717415	          0.08494626	          0.13629286	          0.18655409	          0.15818292	          0.13033452	          0.12412337	          0.16572231	          0.20664235	          0.12608869	          0.12367859	          0.21208178	          0.22029003	          0.11671053	          0.11410760	          0.05000000	          0.05000001	
